<svg width="22" height="18" fill="none" xmlns="http://www.w3.org/2000/svg"><path d="M13.75 2.125A1.375 1.375 0 0 1 15.125 3.5v11a1.375 1.375 0 0 1-1.375 1.375h-5.5A1.375 1.375 0 0 1 6.875 14.5v-11A1.375 1.375 0 0 1 8.25 2.125h5.5ZM8.25.75A2.75 2.75 0 0 0 5.5 3.5v11a2.75 2.75 0 0 0 2.75 2.75h5.5a2.75 2.75 0 0 0 2.75-2.75v-11A2.75 2.75 0 0 0 13.75.75h-5.5Z" fill="#67C1E8"/><path d="M11 14.5a1.375 1.375 0 1 0 0-2.75 1.375 1.375 0 0 0 0 2.75ZM2.199 3.58a.688.688 0 0 1 .286.93A9.58 9.58 0 0 0 1.375 9c0 1.623.402 3.152 1.11 4.491a.687.687 0 1 1-1.216.643A10.956 10.956 0 0 1 0 9c0-1.852.46-3.6 1.27-5.134a.687.687 0 0 1 .929-.286Zm17.602 0a.687.687 0 0 1 .93.286A10.954 10.954 0 0 1 22 9a10.954 10.954 0 0 1-1.27 5.134.688.688 0 0 1-1.215-.643 9.58 9.58 0 0 0 1.11-4.49 9.582 9.582 0 0 0-1.11-4.492.687.687 0 0 1 .286-.929ZM4.203 5.61a.687.687 0 0 1 .39.89A6.856 6.856 0 0 0 4.126 9c0 .883.165 1.726.468 2.5a.687.687 0 1 1-1.28.5 8.23 8.23 0 0 1-.563-3c0-1.057.2-2.07.564-3a.687.687 0 0 1 .89-.39Zm13.594 0a.687.687 0 0 1 .89.39c.364.93.563 1.943.563 3 0 1.058-.2 2.07-.564 3a.687.687 0 0 1-1.279-.5 6.852 6.852 0 0 0 .468-2.5c0-.883-.165-1.725-.468-2.5a.687.687 0 0 1 .39-.89Z" fill="#67C1E8"/></svg>