<svg width="16" height="17" fill="none" xmlns="http://www.w3.org/2000/svg"><g clip-path="url(#a)" fill="#67C1E8"><path d="m15.588 12.306-1.989-1.99c-.53-.53-1.457-.53-1.989 0l-.331.332 3.977 3.978.332-.332c.55-.55.548-1.44 0-1.988Zm-4.991-1.013A1.055 1.055 0 0 1 9.2 11.22L5.268 7.286a1.055 1.055 0 0 1-.072-1.398L1.227 1.92c-1.707 1.99-1.64 4.99.244 6.873l6.222 6.225a5.032 5.032 0 0 0 6.873.243l-3.969-3.968ZM6.172 2.887 4.183.898c-.53-.53-1.457-.531-1.989 0l-.331.332L5.84 5.207l.332-.331c.55-.55.549-1.44 0-1.989Z"/></g><defs><clipPath id="a"><path fill="#fff" transform="translate(0 .5)" d="M0 0h16v16H0z"/></clipPath></defs></svg>