<svg width="16" height="16" viewBox="0 0 16 16" fill="none" xmlns="http://www.w3.org/2000/svg">
<g clip-path="url(#clip0_117_3185)">
<path d="M8.00255 3.89203C5.73388 3.89203 3.89722 5.7307 3.89722 7.99736C3.89722 10.266 5.73588 12.1027 8.00255 12.1027C10.2712 12.1027 12.1079 10.264 12.1079 7.99736C12.1079 5.7287 10.2692 3.89203 8.00255 3.89203ZM8.00255 10.662C6.52988 10.662 5.33788 9.46936 5.33788 7.99736C5.33788 6.52536 6.53055 5.3327 8.00255 5.3327C9.47455 5.3327 10.6672 6.52536 10.6672 7.99736C10.6679 9.46936 9.47522 10.662 8.00255 10.662Z" fill="#67C1E8"/>
<path d="M11.2981 0.0522719C9.82609 -0.0163947 6.18009 -0.0130614 4.70675 0.0522719C3.41209 0.112939 2.27009 0.425605 1.34942 1.34627C-0.189248 2.88494 0.00741909 4.95827 0.00741909 7.99894C0.00741909 11.1109 -0.165914 13.1363 1.34942 14.6516C2.89409 16.1956 4.99742 15.9936 8.00209 15.9936C11.0848 15.9936 12.1488 15.9956 13.2388 15.5736C14.7208 14.9983 15.8394 13.6736 15.9488 11.2943C16.0181 9.8216 16.0141 6.17627 15.9488 4.70294C15.8168 1.89427 14.3094 0.190939 11.2981 0.0522719ZM13.6281 13.6336C12.6194 14.6423 11.2201 14.5523 7.98275 14.5523C4.64942 14.5523 3.31275 14.6016 2.33742 13.6236C1.21409 12.5056 1.41742 10.7103 1.41742 7.98827C1.41742 4.30494 1.03942 1.65227 4.73609 1.46294C5.58542 1.43294 5.83542 1.42294 7.97342 1.42294L8.00342 1.44294C11.5561 1.44294 14.3434 1.07094 14.5108 4.76694C14.5488 5.61027 14.5574 5.86361 14.5574 7.99827C14.5568 11.2929 14.6194 12.6376 13.6281 13.6336Z" fill="#67C1E8"/>
<path d="M12.2706 4.68933C12.8004 4.68933 13.2299 4.25982 13.2299 3.72999C13.2299 3.20017 12.8004 2.77066 12.2706 2.77066C11.7408 2.77066 11.3113 3.20017 11.3113 3.72999C11.3113 4.25982 11.7408 4.68933 12.2706 4.68933Z" fill="#67C1E8"/>
</g>
<defs>
<clipPath id="clip0_117_3185">
<rect width="16" height="16" fill="white"/>
</clipPath>
</defs>
</svg>
