<svg width="16" height="16" fill="none" xmlns="http://www.w3.org/2000/svg"><g clip-path="url(#a)" fill="#67C1E8"><path d="M8.003 3.892a4.105 4.105 0 1 0-.001 8.21 4.105 4.105 0 0 0 0-8.21Zm0 6.77a2.664 2.664 0 1 1 0-5.33 2.664 2.664 0 1 1 0 5.33Z"/><path d="M11.298.052c-1.472-.068-5.118-.065-6.591 0-1.295.06-2.437.374-3.358 1.294C-.189 2.885.007 4.958.007 8c0 3.112-.173 5.137 1.342 6.653 1.545 1.544 3.648 1.342 6.653 1.342 3.083 0 4.147.002 5.237-.42 1.482-.576 2.6-1.9 2.71-4.28.07-1.472.065-5.118 0-6.591-.132-2.809-1.64-4.512-4.65-4.65Zm2.33 13.582c-1.009 1.008-2.408.918-5.645.918-3.334 0-4.67.05-5.646-.928-1.123-1.118-.92-2.914-.92-5.636 0-3.683-.378-6.336 3.32-6.525.848-.03 1.098-.04 3.236-.04l.03.02c3.553 0 6.34-.372 6.508 3.324.038.843.046 1.097.046 3.231 0 3.295.062 4.64-.929 5.636Z"/><path d="M12.27 4.69a.96.96 0 1 0 0-1.92.96.96 0 0 0 0 1.92Z"/></g><defs><clipPath id="a"><path fill="#fff" d="M0 0h16v16H0z"/></clipPath></defs></svg>