<svg width="16" height="17" viewBox="0 0 16 17" fill="none" xmlns="http://www.w3.org/2000/svg">
<g clip-path="url(#clip0_154_4949)">
<path d="M7.08524 0.613488C7.08507 0.613676 7.08486 0.613832 7.08468 0.614051L4.03781 3.8798C3.80956 4.12446 3.81041 4.52018 4.0398 4.76371C4.26917 5.00721 4.64015 5.00627 4.86844 4.76161L6.91406 2.56899L6.91406 15.8052C6.91406 16.1504 7.17638 16.4302 7.5 16.4302C7.82361 16.4302 8.08593 16.1504 8.08593 15.8052L8.08593 2.56902L10.1316 4.76158C10.3598 5.00624 10.7308 5.00718 10.9602 4.76368C11.1896 4.52014 11.1904 4.12439 10.9622 3.87977L7.91531 0.614019C7.91513 0.613832 7.91493 0.613675 7.91475 0.613457C7.68571 0.368675 7.31352 0.369457 7.08524 0.613488Z" fill="#67C1E8"/>
</g>
<defs>
<clipPath id="clip0_154_4949">
<rect width="16" height="16" fill="white" transform="translate(0 16.4302) rotate(-90)"/>
</clipPath>
</defs>
</svg>
