<svg width="16" height="17" viewBox="0 0 16 17" fill="none" xmlns="http://www.w3.org/2000/svg">
<path fill-rule="evenodd" clip-rule="evenodd" d="M7.99996 2.43001C4.68625 2.43001 1.99996 5.1163 1.99996 8.43001C1.99996 11.7437 4.68625 14.43 7.99996 14.43C11.3137 14.43 14 11.7437 14 8.43001C14 5.1163 11.3137 2.43001 7.99996 2.43001ZM0.666626 8.43001C0.666626 4.37992 3.94987 1.09668 7.99996 1.09668C12.05 1.09668 15.3333 4.37992 15.3333 8.43001C15.3333 12.4801 12.05 15.7633 7.99996 15.7633C3.94987 15.7633 0.666626 12.4801 0.666626 8.43001Z" fill="#CCD1DA"/>
<path fill-rule="evenodd" clip-rule="evenodd" d="M7.99996 3.76335C8.36815 3.76335 8.66663 4.06182 8.66663 4.43001V8.01799L10.9648 9.16706C11.2941 9.33172 11.4276 9.73217 11.2629 10.0615C11.0983 10.3908 10.6978 10.5243 10.3685 10.3596L7.70182 9.0263C7.47596 8.91337 7.33329 8.68253 7.33329 8.43001V4.43001C7.33329 4.06182 7.63177 3.76335 7.99996 3.76335Z" fill="#CCD1DA"/>
</svg>
