<svg width="38" height="25" viewBox="0 0 38 25" fill="none" xmlns="http://www.w3.org/2000/svg">
<path d="M16.4063 1.5625C15.1215 1.5625 14.0625 2.62146 14.0625 3.90625V13.1348L13.5498 12.5977L13.3545 12.4268C12.4543 11.5265 10.9833 11.5265 10.083 12.4268C9.18277 13.327 9.18277 14.798 10.083 15.6982V15.7227L16.4795 22.0459L16.5284 22.0703L16.5528 22.1191C17.6056 22.9095 18.9484 23.4375 20.459 23.4375H21.8018C25.3449 23.4375 28.1983 20.5841 28.1983 17.041V10.9375C28.1983 9.65271 27.1393 8.59375 25.8545 8.59375C25.5219 8.59375 25.2137 8.6853 24.9268 8.81348C24.6704 7.79724 23.7458 7.03125 22.6563 7.03125C22.0581 7.03125 21.5088 7.26624 21.0938 7.6416C20.6787 7.26624 20.1294 7.03125 19.5313 7.03125C19.2566 7.03125 18.9972 7.08923 18.75 7.17773V3.90625C18.75 2.62146 17.6911 1.5625 16.4063 1.5625ZM16.4063 3.125C16.8396 3.125 17.1875 3.4729 17.1875 3.90625V12.5H18.75V9.375C18.75 8.94165 19.0979 8.59375 19.5313 8.59375C19.9646 8.59375 20.3125 8.94165 20.3125 9.375V12.5H21.875V9.375C21.875 8.94165 22.2229 8.59375 22.6563 8.59375C23.0896 8.59375 23.4375 8.94165 23.4375 9.375V12.5H25.0733V10.9375C25.0733 10.5042 25.4212 10.1562 25.8545 10.1562C26.2879 10.1562 26.6358 10.5042 26.6358 10.9375V17.041C26.6358 19.7479 24.5087 21.875 21.8018 21.875H20.459C19.3146 21.875 18.3258 21.4661 17.5049 20.8496L11.1817 14.5996C10.8338 14.2517 10.8338 13.8733 11.1817 13.5254C11.5296 13.1775 11.908 13.1775 12.2559 13.5254L15.625 16.8945V3.90625C15.625 3.4729 15.9729 3.125 16.4063 3.125Z" fill="#9BA8B6"/>
<path d="M32.5 15.625L35.625 12.5L32.5 9.375L33.125 8.125L37.5 12.5L33.125 16.875L32.5 15.625Z" fill="#9BA8B6"/>
<path d="M5 9.375L1.875 12.5L5 15.625L4.375 16.875L-1.91237e-07 12.5L4.375 8.125L5 9.375Z" fill="#9BA8B6"/>
</svg>
