<svg width="22" height="18" viewBox="0 0 22 18" fill="none" xmlns="http://www.w3.org/2000/svg">
<path d="M13.75 2.125C14.1147 2.125 14.4644 2.26986 14.7223 2.52772C14.9801 2.78559 15.125 3.13532 15.125 3.49999V14.5C15.125 14.8646 14.9801 15.2144 14.7223 15.4722C14.4644 15.7301 14.1147 15.875 13.75 15.875H8.24999C7.88532 15.875 7.53559 15.7301 7.27773 15.4722C7.01986 15.2144 6.875 14.8646 6.875 14.5V3.49999C6.875 3.13532 7.01986 2.78559 7.27773 2.52772C7.53559 2.26986 7.88532 2.125 8.24999 2.125H13.75ZM8.24999 0.75C7.52065 0.75 6.82118 1.03973 6.30545 1.55545C5.78973 2.07118 5.5 2.77065 5.5 3.49999V14.5C5.5 15.2293 5.78973 15.9288 6.30545 16.4445C6.82118 16.9602 7.52065 17.25 8.24999 17.25H13.75C14.4793 17.25 15.1788 16.9602 15.6945 16.4445C16.2102 15.9288 16.5 15.2293 16.5 14.5V3.49999C16.5 2.77065 16.2102 2.07118 15.6945 1.55545C15.1788 1.03973 14.4793 0.75 13.75 0.75H8.24999Z" fill="#67C1E8"/>
<path d="M11 14.5002C11.3647 14.5002 11.7144 14.3553 11.9723 14.0975C12.2301 13.8396 12.375 13.4899 12.375 13.1252C12.375 12.7605 12.2301 12.4108 11.9723 12.1529C11.7144 11.8951 11.3647 11.7502 11 11.7502C10.6353 11.7502 10.2856 11.8951 10.0277 12.1529C9.76986 12.4108 9.62499 12.7605 9.62499 13.1252C9.62499 13.4899 9.76986 13.8396 10.0277 14.0975C10.2856 14.3553 10.6353 14.5002 11 14.5002ZM2.19863 3.57997C2.27846 3.62221 2.34918 3.67976 2.40676 3.74934C2.46434 3.81891 2.50764 3.89915 2.5342 3.98547C2.56076 4.07179 2.57005 4.16249 2.56155 4.2524C2.55304 4.34231 2.52691 4.42967 2.48463 4.50947C1.75347 5.89327 1.37249 7.43513 1.37501 9.00021C1.37501 10.6227 1.77651 12.1517 2.48463 13.491C2.56997 13.6521 2.58777 13.8406 2.53414 14.0149C2.4805 14.1893 2.35982 14.3351 2.19863 14.4205C2.03745 14.5058 1.84897 14.5236 1.67465 14.47C1.50034 14.4163 1.35447 14.2956 1.26913 14.1345C0.433168 12.5524 -0.00256787 10.7896 1.13842e-05 9.00021C1.13842e-05 7.14809 0.459261 5.39909 1.26913 3.86597C1.31137 3.78615 1.36892 3.71542 1.4385 3.65785C1.50807 3.60027 1.58831 3.55696 1.67463 3.5304C1.76095 3.50384 1.85165 3.49455 1.94156 3.50306C2.03147 3.51156 2.11883 3.5377 2.19863 3.57997ZM19.8014 3.57997C19.8812 3.5377 19.9685 3.51156 20.0584 3.50306C20.1483 3.49455 20.239 3.50384 20.3254 3.5304C20.4117 3.55696 20.4919 3.60027 20.5615 3.65785C20.6311 3.71542 20.6886 3.78615 20.7308 3.86597C21.5669 5.44805 22.0026 7.21083 22 9.00021C22.0026 10.7896 21.5669 12.5524 20.7308 14.1345C20.6455 14.2956 20.4996 14.4163 20.3253 14.47C20.151 14.5236 19.9625 14.5058 19.8014 14.4205C19.6402 14.3351 19.5195 14.1893 19.4658 14.0149C19.4122 13.8406 19.43 13.6521 19.5154 13.491C20.2465 12.1072 20.6275 10.5653 20.625 9.00021C20.625 7.37772 20.2235 5.84872 19.5154 4.50947C19.4731 4.42967 19.4469 4.34231 19.4384 4.2524C19.4299 4.16249 19.4392 4.07179 19.4658 3.98547C19.4923 3.89915 19.5356 3.81891 19.5932 3.74934C19.6508 3.67976 19.7215 3.62221 19.8014 3.57997ZM4.20338 5.60947C4.28755 5.64229 4.36444 5.69138 4.42963 5.75394C4.49482 5.81649 4.54704 5.89128 4.58331 5.97403C4.61957 6.05678 4.63917 6.14587 4.64099 6.2362C4.6428 6.32653 4.62679 6.41633 4.59388 6.50047C4.28304 7.29718 4.12402 8.14501 4.125 9.00021C4.125 9.88296 4.29 10.7258 4.5925 11.5C4.63087 11.5849 4.65156 11.6768 4.6533 11.7701C4.65503 11.8633 4.63779 11.9559 4.60262 12.0422C4.56745 12.1286 4.51508 12.2069 4.4487 12.2723C4.38232 12.3378 4.30332 12.3891 4.21649 12.4231C4.12967 12.4571 4.03684 12.473 3.94365 12.47C3.85046 12.467 3.75886 12.4451 3.67442 12.4055C3.58998 12.366 3.51446 12.3097 3.45246 12.2401C3.39045 12.1704 3.34326 12.0889 3.31376 12.0005C2.9404 11.0443 2.74919 10.0267 2.75001 9.00021C2.75001 7.94284 2.94938 6.93084 3.31376 5.99997C3.38005 5.8303 3.51098 5.69388 3.67778 5.62066C3.84458 5.54745 4.03361 5.54342 4.20338 5.60947ZM17.7966 5.60947C17.8807 5.57655 17.9705 5.56054 18.0609 5.56236C18.1512 5.56417 18.2403 5.58377 18.323 5.62004C18.4058 5.65631 18.4806 5.70853 18.5431 5.77372C18.6057 5.83891 18.6548 5.91579 18.6876 5.99997C19.0506 6.93084 19.25 7.94284 19.25 9.00021C19.25 10.0576 19.0506 11.0696 18.6862 12.0005C18.6137 12.1611 18.4822 12.2878 18.319 12.3542C18.1557 12.4207 17.9732 12.422 17.8091 12.3577C17.6449 12.2935 17.5117 12.1687 17.437 12.009C17.3623 11.8494 17.3517 11.6672 17.4075 11.5C17.71 10.7258 17.875 9.88296 17.875 9.00021C17.875 8.11746 17.71 7.27459 17.4075 6.50047C17.3409 6.33071 17.3445 6.14147 17.4175 5.97438C17.4905 5.80728 17.6269 5.67602 17.7966 5.60947Z" fill="#67C1E8"/>
</svg>
