<svg width="19" height="19" viewBox="0 0 19 19" fill="none" xmlns="http://www.w3.org/2000/svg">
<path d="M13.94 9.14532C13.9043 9.05325 13.8508 8.96914 13.7825 8.89782L10.0325 5.14781C9.96257 5.07789 9.87955 5.02242 9.78819 4.98457C9.69682 4.94673 9.59889 4.92725 9.5 4.92725C9.30027 4.92725 9.10873 5.00659 8.9675 5.14781C8.89757 5.21774 8.8421 5.30076 8.80425 5.39213C8.76641 5.48349 8.74693 5.58142 8.74693 5.68031C8.74693 5.88004 8.82627 6.07159 8.9675 6.21282L11.4425 8.68032H5.75C5.55109 8.68032 5.36032 8.75933 5.21967 8.89999C5.07902 9.04064 5 9.2314 5 9.43032C5 9.62923 5.07902 9.81999 5.21967 9.96065C5.36032 10.1013 5.55109 10.1803 5.75 10.1803H11.4425L8.9675 12.6478C8.8972 12.7175 8.84141 12.8005 8.80333 12.8919C8.76525 12.9833 8.74565 13.0813 8.74565 13.1803C8.74565 13.2793 8.76525 13.3774 8.80333 13.4687C8.84141 13.5601 8.8972 13.6431 8.9675 13.7128C9.03722 13.7831 9.12017 13.8389 9.21157 13.877C9.30296 13.9151 9.40099 13.9347 9.5 13.9347C9.59901 13.9347 9.69704 13.9151 9.78843 13.877C9.87983 13.8389 9.96278 13.7831 10.0325 13.7128L13.7825 9.96282C13.8508 9.89149 13.9043 9.80738 13.94 9.71532C14.015 9.53272 14.015 9.32791 13.94 9.14532Z" fill="#67C1E8"/>
</svg>
