<svg width="16" height="16" viewBox="0 0 16 16" fill="none" xmlns="http://www.w3.org/2000/svg">
<g clip-path="url(#clip0_1257_3788)">
<path d="M15.5877 11.8057L13.5992 9.81672C13.0686 9.28616 12.1416 9.28525 11.6102 9.81672L11.2786 10.1483L15.2562 14.1257L15.5877 13.7942C16.1383 13.2436 16.1364 12.3535 15.5877 11.8057Z" fill="#67C1E8"/>
<path d="M10.5974 10.7926C10.1789 11.1168 9.58201 11.1038 9.19966 10.7207L5.26789 6.78616C4.88467 6.40294 4.87177 5.80557 5.19592 5.38816L1.22746 1.41992C-0.479756 3.40992 -0.413006 6.40844 1.47121 8.29266L7.69317 14.5173C9.50129 16.3254 12.463 16.5652 14.566 14.761L10.5974 10.7926Z" fill="#67C1E8"/>
<path d="M6.17189 2.38723L4.18337 0.398261C3.6528 -0.1323 2.72584 -0.133207 2.1944 0.398261L1.86281 0.729854L5.84043 4.70725L6.17189 4.37575C6.72246 3.82519 6.72064 2.93507 6.17189 2.38723Z" fill="#67C1E8"/>
</g>
<defs>
<clipPath id="clip0_1257_3788">
<rect width="16" height="16" fill="white"/>
</clipPath>
</defs>
</svg>
