<svg width="16" height="17" viewBox="0 0 16 17" fill="none" xmlns="http://www.w3.org/2000/svg">
<g clip-path="url(#clip0_487_1271)">
<path d="M15.5877 12.3058L13.5991 10.3168C13.0686 9.78628 12.1416 9.78537 11.6102 10.3168L11.2786 10.6484L15.2562 14.6258L15.5877 14.2944C16.1382 13.7437 16.1364 12.8536 15.5877 12.3058Z" fill="#67C1E8"/>
<path d="M10.5973 11.2928C10.1789 11.617 9.58198 11.604 9.19963 11.2208L5.26786 7.28635C4.88464 6.90313 4.87173 6.30575 5.19589 5.88835L1.22743 1.9201C-0.479787 3.9101 -0.413037 6.90863 1.47118 8.79284L7.69314 15.0175C9.50126 16.8256 12.463 17.0654 14.566 15.2612L10.5973 11.2928Z" fill="#67C1E8"/>
<path d="M6.17188 2.88723L4.18335 0.898261C3.65279 0.3677 2.72582 0.366793 2.19439 0.898261L1.86279 1.22985L5.84041 5.20725L6.17188 4.87575C6.72244 4.32519 6.72063 3.43507 6.17188 2.88723Z" fill="#67C1E8"/>
</g>
<defs>
<clipPath id="clip0_487_1271">
<rect width="16" height="16" fill="white" transform="translate(0 0.5)"/>
</clipPath>
</defs>
</svg>
